<?xml version="1.0" encoding="UTF-8"?>
<!-- Generator: Adobe Illustrator 16.0.0, SVG Export Plug-In . SVG Version: 6.00 Build 0)  -->
<!DOCTYPE svg PUBLIC "-//W3C//DTD SVG 1.1//EN" "http://www.w3.org/Graphics/SVG/1.1/DTD/svg11.dtd">
<svg version="1.1" id="Layer_1" xmlns="http://www.w3.org/2000/svg" xmlns:xlink="http://www.w3.org/1999/xlink" x="0px" y="0px" width="403.977px" height="152px" viewBox="0 0 403.977 152" enable-background="new 0 0 403.977 152" xml:space="preserve">
<g>
	<path fill="#55487E" d="M140.471,30.105L77.955,0L15.439,30.105L0,97.751L43.262,152h69.386l43.262-54.249L140.471,30.105z    M110.618,147.553H45.291L4.56,96.48l14.537-63.69L77.955,4.446l58.857,28.344l14.535,63.69L110.618,147.553z"/>
	<polygon fill="#55487E" points="47.191,143.391 8.83,95.288 22.521,35.304 77.955,8.61 133.389,35.304 147.078,95.288    108.717,143.391  "/>
	<g>
		<g>
			<path fill="#719A48" d="M111.78,101.433c-4.687-21.007-17.44-18.005-17.44-18.005l-0.182-0.064     c-0.805-3.849-0.756-9.501-0.756-9.501c-0.281-4.503-3.658-5.44-3.658-5.44l-16.598,3.189l-4.757-7.729l3.631-7.462l-5.439-9.285     l-0.319-1.378l0.885,0.16l-1.514-2.873l-1.112-4.816l-2.131-1.354l-2.936-5.581h-5.41c0,0-6.724-0.702-14.562,9.29     c-0.014-0.018-0.023-0.036-0.033-0.057c0.01,0.021,0.02,0.039,0.031,0.06c-0.154,0.196-0.312,0.4-0.469,0.609     c-0.082-0.086-0.165-0.175-0.254-0.268c0.085,0.096,0.166,0.189,0.245,0.28c-0.314,0.415-0.63,0.85-0.948,1.301     c-0.062-0.034-0.119-0.063-0.186-0.096c0.062,0.037,0.119,0.07,0.179,0.105c-0.771,1.098-1.548,2.301-2.327,3.623     c0,0-0.758,2.285-1.304,5.74c-0.084-0.027-0.167-0.058-0.259-0.088c0.092,0.039,0.172,0.075,0.256,0.109     c0,0.011-0.002,0.021-0.004,0.03c-0.092-0.03-0.178-0.056-0.277-0.085c0.096,0.031,0.186,0.061,0.277,0.091     c-0.006,0.045-0.014,0.091-0.02,0.138c-0.107-0.026-0.209-0.054-0.32-0.084c0.111,0.03,0.213,0.06,0.317,0.09     c-0.072,0.467-0.138,0.953-0.199,1.459c-0.077,0.005-0.149,0.011-0.23,0.019c0.081,0,0.151,0.001,0.228,0.004     c-0.373,3.11-0.502,6.898,0.147,10.75c-0.095,0.066-0.192,0.13-0.292,0.199c0.103-0.051,0.203-0.102,0.299-0.153     c1.07,6.267,4.207,12.693,11.721,16.646l0.012-0.082c0.422,3.603,1.191,6.442,1.191,6.442     c-15.004,13.503-0.072,56.025-0.072,56.025h50.922h10.604C115.655,130.258,111.78,101.433,111.78,101.433z"/>
			<path fill="#0071BC" d="M33.621,62.156c0,0,17.713-4.179,21.641,3.013c0,0,2.272,6.443,14.055,3.629l0.828-12.743     c0,0,1.025-8.613-10.855-6.937c0,0-11.662-1.702-17.865-10.142C41.424,38.978,33.684,41.448,33.621,62.156z"/>
			<path fill="#FFFFFF" d="M59.143,53.357c0,0,3.064-0.562,3.938,1.562c0.875,2.125-1.688,3.876-1.688,3.876     s-3.252,0.788-3.937-1.919C56.769,54.169,59.143,53.357,59.143,53.357z"/>
			<path d="M60.02,57.672c0,0-2.634-1.688,0.277-3.25c0,0,2.349-0.375,1.721,1.999C62.018,56.42,62.27,57.984,60.02,57.672z"/>
			<path fill="#715948" d="M62.126,102.183l-1.601,5.625l0.102,1.48l0.698,10.147h-1.028c0,0-5.087-17.442-1.369-21.943     L62.126,102.183z"/>
			<path fill="#715948" d="M94.34,83.428c0,0,3.377,22.69-3.189,33.195c0,0-1.312,8.627,3.564,12.19c0,0-4.687-9.564-2.437-11.814     C92.278,117,99.592,101.618,94.34,83.428z"/>
			<path fill="#E6E021" d="M93.143,56.854l0.26-0.102l-2.662-1.256c12.147-3.765,27.406-7.205,41.295-6.576     c0,0-8.627-7.127-34.694-9.753c0,0-11.442-12.19-19.879-12.565c0,0-13.692-4.315-22.694,5.814c0,0,3.562,0.375,3.188,4.5     c0,0,4.314,8.251,6.189,9.564l-4.501,2.44c0,0,9.188,1.498,8.251,7.501l-1.123,6.002l0.93,1.397l0,0l0.344,1.341     c0.085,0.429,0.211,0.962,0.404,1.556l0,0l0,0c0.611,1.891,1.882,4.362,4.508,5.833c0,0,25.136-1.687,61.705-11.44L93.143,56.854     z"/>
			<path fill="#FC9C21" d="M125.193,60.358l-36.668-4.262L68.39,63.883l2.412,1.915c0,0,17.632-5.202,28.509-4.85L125.193,60.358z"/>
		</g>
	</g>
</g>
<g>
	<g>
		<path fill="#55487E" d="M229.579,36.512c3.516,0.33,5.054,2.601,4.614,6.812l-6.153,23.954c-1.538,3.296-4.102,5.274-7.691,5.933    v0.275c3.406,1.208,4.725,3.956,3.956,8.241l-5.274,22.086c-0.989,3.663-3.406,5.714-7.252,6.153h-41.974l16.756-64.719    c1.648-5.823,5.293-8.735,10.934-8.735H229.579z M205.186,93.484l2.856-11.427h-14.284l10.109-16.482h7.911l3.516-12.307H200.79    l-10.548,40.215H205.186z"/>
		<path fill="#55487E" d="M240.622,85.408c-5.201-0.659-8.021-2.563-8.461-5.714l11.372-43.183h17.911l-9.011,34.447h15.658    l9.064-34.612l18.021,0.055l-11.647,45.051c-1.392,2.527-5.311,3.846-11.757,3.956h-6.812l-6.318,24.943H242.05l6.318-24.943    H240.622z"/>
		<path fill="#55487E" d="M328.251,36.787c3.149,0.22,5.713,1.026,7.691,2.417c4.028,2.601,6.043,6.557,6.043,11.867v1.318    c-0.549,9.89-3.388,18.058-8.516,24.503c-2.82,3.333-6.117,5.788-9.889,7.362l7.746,25.712h-17.416l-6.318-23.734h-2.417    l-6.153,23.514l-0.22,0.22h-16.042l-0.22-0.22h-0.22l18.734-72.96H328.251z M313.197,70.3c4.907-0.33,8.186-2.088,9.834-5.274    c1.794-3.259,2.582-6.318,2.362-9.175c-0.109-2.893-2.637-4.34-7.582-4.34h-4.12l-4.89,18.79H313.197z"/>
		<path fill="#55487E" d="M381.378,36.677c8.68,0,14.833,4.615,18.459,13.845c0.88,3.187,1.319,6.428,1.319,9.724    c-0.22,11.428-3.224,21.61-9.011,30.547c-2.931,4.871-6.739,8.992-11.428,12.361c-6.189,4.542-12.416,6.812-18.679,6.812h-25.932    l18.68-73.29H381.378z M365.115,93.264c1.868,0,4.212-0.97,7.032-2.911c3.662-3.442,6.153-6.758,7.472-9.944    c2.161-5.018,3.333-9.834,3.517-14.449c0-6.373-2.197-10.438-6.593-12.197l-4.176-0.439h-4.614l-10.329,39.941H365.115z"/>
	</g>
	<g>
		<path fill="#55487E" d="M174.646,112.811c0.517,0.049,0.742,0.382,0.678,1l-0.903,3.516c-0.226,0.484-0.603,0.774-1.129,0.871    v0.041c0.5,0.177,0.693,0.58,0.581,1.209l-0.774,3.242c-0.146,0.538-0.5,0.839-1.064,0.903h-6.161l2.459-9.5    c0.242-0.854,0.777-1.282,1.605-1.282H174.646z M171.065,121.174l0.419-1.678h-2.097l1.484-2.42h1.161l0.516-1.806h-2.129    l-1.548,5.903H171.065z"/>
		<path fill="#55487E" d="M180.573,112.851c0.463,0.032,0.839,0.15,1.129,0.355c0.592,0.382,0.888,0.962,0.888,1.741v0.194    c-0.081,1.451-0.497,2.65-1.25,3.597c-0.414,0.489-0.898,0.85-1.452,1.08l1.138,3.774h-2.557l-0.928-3.483h-0.354l-0.903,3.451    l-0.032,0.032h-2.354l-0.032-0.032h-0.032l2.75-10.71H180.573z M178.364,117.771c0.72-0.049,1.201-0.307,1.443-0.774    c0.263-0.479,0.379-0.928,0.347-1.347c-0.017-0.425-0.387-0.638-1.113-0.638h-0.604l-0.718,2.759H178.364z"/>
		<path fill="#55487E" d="M184.331,123.593h-2.581l2.774-10.742h2.621L184.331,123.593z"/>
		<path fill="#55487E" d="M191.814,118.424l1.388-5.573l2.387,0.009l-2.774,10.733h-2.161l-1.29-5.936l-1.419,5.936l-2.468-0.008    l2.79-10.734h2.451L191.814,118.424z"/>
		<path fill="#55487E" d="M201.267,112.569c1.769,0,2.914,0.624,3.436,1.871l-2.548,1.742c-0.259-0.646-0.702-0.968-1.331-0.968    c-1.538,0-2.647,1.011-3.331,3.032c-0.14,0.511-0.209,0.93-0.209,1.258c0,1.355,0.591,2.032,1.774,2.032    c0.978-0.005,1.701-0.328,2.169-0.968l0.218-0.814h-1.839l1.524-2.347h3.653l-1.113,4.307c-0.446,0.612-0.946,1.086-1.5,1.419    c-1.005,0.607-2.293,0.882-3.862,0.823c-1.802-0.108-2.981-0.925-3.541-2.452c-0.112-0.403-0.169-0.779-0.169-1.129    c0-2.15,0.807-4.107,2.419-5.871c0.952-0.86,1.756-1.387,2.411-1.58C200.219,112.687,200.831,112.569,201.267,112.569z"/>
		<path fill="#55487E" d="M211.251,119.989c-0.764-0.097-1.178-0.377-1.242-0.839l1.669-6.339h2.629l-1.322,5.057h2.299l1.33-5.081    l2.646,0.008l-1.71,6.613c-0.204,0.371-0.779,0.564-1.726,0.581h-1l-0.928,3.661h-2.436l0.928-3.661H211.251z"/>
		<path fill="#55487E" d="M224.581,112.544c1.727,0,2.888,0.817,3.484,2.452c0.129,0.483,0.193,0.925,0.193,1.322    c0,2.693-1.097,4.92-3.29,6.678c-1.124,0.666-2.188,1-3.194,1c-1.666,0-2.806-0.774-3.419-2.322    c-0.172-0.607-0.258-1.167-0.258-1.678c0-1.71,0.623-3.397,1.871-5.064C221.317,113.34,222.855,112.544,224.581,112.544z     M220.774,119.254c0,1.07,0.366,1.726,1.098,1.968l0.612,0.097c1.103,0,2.017-0.698,2.742-2.097    c0.301-0.822,0.451-1.479,0.451-1.968c0-1.005-0.365-1.661-1.097-1.968l-0.677-0.097c-0.903,0-1.71,0.549-2.42,1.646    c-0.382,0.698-0.597,1.301-0.645,1.807L220.774,119.254z"/>
		<path fill="#55487E" d="M232.565,112.851l-1.791,7.121c-0.145,0.822,0.242,1.25,1.162,1.282c0.979-0.112,1.661-0.893,2.048-2.339    l1.629-6.064h2.452l-2,7.661c-0.345,0.871-0.85,1.6-1.517,2.186c-0.844,0.77-1.983,1.153-3.419,1.153    c-0.85,0-1.592-0.29-2.226-0.871c-0.635-0.602-0.847-1.511-0.638-2.726l1.871-7.403H232.565z"/>
		<path fill="#55487E" d="M242.992,112.851c0.463,0.032,0.839,0.15,1.129,0.355c0.592,0.382,0.888,0.962,0.888,1.741v0.194    c-0.081,1.451-0.497,2.65-1.25,3.597c-0.414,0.489-0.898,0.85-1.452,1.08l1.138,3.774h-2.557l-0.928-3.483h-0.354l-0.903,3.451    l-0.032,0.032h-2.354l-0.032-0.032h-0.032l2.75-10.71H242.992z M240.783,117.771c0.72-0.049,1.201-0.307,1.443-0.774    c0.263-0.479,0.379-0.928,0.347-1.347c-0.017-0.425-0.387-0.638-1.113-0.638h-0.604l-0.718,2.759H240.783z"/>
		<path fill="#55487E" d="M257.242,112.86c0.521,0.08,0.814,0.414,0.879,1l-0.976,3.75c-0.242,0.677-0.693,1.08-1.354,1.209    c0.645,0.27,0.911,0.791,0.798,1.564l-1.113,4.363l-2.298-1.032l1.04-4.064h-2.097l1.484-2.21h1.097l0.58-2.129h-2.048    l-2.193,8.322h-2.436l2.806-10.773H257.242z"/>
		<path fill="#55487E" d="M263.589,115.247h-2.29l-0.451,1.653h2.548l-1.58,2.419h-1.549l-0.516,1.911h3.064l-1.388,2.363h-4.854    l2.54-9.847c0.146-0.538,0.486-0.847,1.024-0.928h4.903L263.589,115.247z"/>
		<path fill="#55487E" d="M269.903,115.819c-0.436-0.521-0.94-0.766-1.516-0.733c-0.57,0.032-0.936,0.296-1.098,0.79    c-0.15,0.489,0.27,0.928,1.259,1.314c0.994,0.29,1.521,0.887,1.58,1.79c0,1.184-0.419,2.291-1.258,3.323    c-0.592,0.655-1.21,1.104-1.854,1.347c-0.641,0.242-1.227,0.33-1.759,0.266c-1.048-0.097-1.865-0.655-2.451-1.677l1.71-2.227    c0.198,0.468,0.448,0.828,0.75,1.081c0.312,0.247,0.637,0.371,0.976,0.371c0.36,0,0.68-0.14,0.96-0.42    c0.284-0.284,0.403-0.591,0.354-0.919c-0.049-0.339-0.239-0.567-0.572-0.686l-0.532-0.21c-0.21-0.086-0.412-0.172-0.605-0.258    c-0.425-0.198-0.729-0.471-0.911-0.814c-0.178-0.36-0.264-0.753-0.258-1.178c0-0.903,0.322-1.806,0.968-2.709    c0.559-0.77,1.376-1.307,2.451-1.613c0.366-0.102,0.834-0.124,1.403-0.064c0.597,0.054,1.193,0.408,1.79,1.064L269.903,115.819z"/>
		<path fill="#55487E" d="M280.411,112.86l-1.483,2.451h-1.549l-2.112,8.29h-2.678l2.146-8.322h-0.871l-0.839,1.354h-2.258v-0.064    l2.354-3.709H280.411z"/>
		<path fill="#55487E" d="M284.702,112.851c0.463,0.032,0.839,0.15,1.129,0.355c0.592,0.382,0.888,0.962,0.888,1.741v0.194    c-0.081,1.451-0.497,2.65-1.25,3.597c-0.414,0.489-0.898,0.85-1.452,1.08l1.138,3.774h-2.557l-0.928-3.483h-0.354l-0.903,3.451    l-0.032,0.032h-2.354l-0.032-0.032h-0.032l2.75-10.71H284.702z M282.493,117.771c0.72-0.049,1.201-0.307,1.443-0.774    c0.263-0.479,0.379-0.928,0.347-1.347c-0.017-0.425-0.387-0.638-1.113-0.638h-0.604l-0.718,2.759H282.493z"/>
		<path fill="#55487E" d="M288.46,123.593h-2.581l2.774-10.742h2.621L288.46,123.593z"/>
		<path fill="#55487E" d="M296.936,112.569c1.769,0,2.914,0.624,3.436,1.871l-2.548,1.742c-0.259-0.646-0.702-0.968-1.331-0.968    c-1.495,0.032-2.604,1.043-3.331,3.032c-0.14,0.511-0.209,0.93-0.209,1.258c-0.017,1.199,0.521,1.822,1.612,1.871    c0.979,0.038,1.828-0.419,2.549-1.371l1.5,1.839c-0.393,0.521-0.981,0.997-1.767,1.428c-0.784,0.43-1.741,0.658-2.87,0.686    c-1.78,0-2.96-0.791-3.541-2.371c-0.112-0.452-0.169-0.855-0.169-1.21c0-2.15,0.807-4.107,2.419-5.871    c0.952-0.86,1.756-1.387,2.411-1.58C295.888,112.687,296.5,112.569,296.936,112.569z"/>
		<path fill="#55487E" d="M309.452,112.86l-1.483,2.451h-1.549l-2.112,8.29h-2.678l2.146-8.322h-0.871l-0.839,1.354h-2.258v-0.064    l2.354-3.709H309.452z"/>
		<path fill="#55487E" d="M314.024,115.247h-2.29l-0.451,1.653h2.548l-1.58,2.419h-1.549l-0.516,1.911h3.064l-1.388,2.363h-4.854    l2.54-9.847c0.146-0.538,0.486-0.847,1.024-0.928h4.903L314.024,115.247z"/>
		<path fill="#55487E" d="M320.097,112.835c1.274,0,2.178,0.677,2.71,2.032c0.129,0.468,0.193,0.943,0.193,1.427    c-0.032,1.678-0.473,3.173-1.322,4.484c-0.431,0.715-0.989,1.32-1.678,1.814c-0.908,0.667-1.822,1-2.741,1h-3.807l2.741-10.758    H320.097z M317.71,121.142c0.274,0,0.618-0.143,1.032-0.428c0.537-0.506,0.903-0.992,1.097-1.46    c0.317-0.736,0.489-1.443,0.517-2.121c0-0.936-0.323-1.532-0.968-1.79l-0.613-0.064h-0.678l-1.516,5.863H317.71z"/>
		<path fill="#55487E" d="M335.218,112.819c0.774,0.253,1.086,0.777,0.936,1.573l-2.21,8.395c-0.209,0.506-0.653,0.774-1.33,0.807    h-5.903l2.758-10.774H335.218z M331.863,121.142l1.564-5.903h-2.161l-1.517,5.903H331.863z"/>
		<path fill="#55487E" d="M341.79,112.544c1.727,0,2.888,0.817,3.484,2.452c0.129,0.483,0.193,0.925,0.193,1.322    c0,2.693-1.097,4.92-3.29,6.678c-1.124,0.666-2.188,1-3.194,1c-1.666,0-2.806-0.774-3.419-2.322    c-0.172-0.607-0.258-1.167-0.258-1.678c0-1.71,0.623-3.397,1.871-5.064C338.526,113.34,340.064,112.544,341.79,112.544z     M337.983,119.254c0,1.07,0.366,1.726,1.098,1.968l0.612,0.097c1.103,0,2.017-0.698,2.742-2.097    c0.301-0.822,0.451-1.479,0.451-1.968c0-1.005-0.365-1.661-1.097-1.968l-0.677-0.097c-0.903,0-1.71,0.549-2.42,1.646    c-0.382,0.698-0.597,1.301-0.645,1.807L337.983,119.254z"/>
		<path fill="#55487E" d="M351.976,112.569c1.769,0,2.914,0.624,3.436,1.871l-2.548,1.742c-0.259-0.646-0.702-0.968-1.331-0.968    c-1.495,0.032-2.604,1.043-3.331,3.032c-0.14,0.511-0.209,0.93-0.209,1.258c-0.017,1.199,0.521,1.822,1.612,1.871    c0.979,0.038,1.828-0.419,2.549-1.371l1.5,1.839c-0.393,0.521-0.981,0.997-1.767,1.428c-0.784,0.43-1.741,0.658-2.87,0.686    c-1.78,0-2.96-0.791-3.541-2.371c-0.112-0.452-0.169-0.855-0.169-1.21c0-2.15,0.807-4.107,2.419-5.871    c0.952-0.86,1.756-1.387,2.411-1.58C350.928,112.687,351.54,112.569,351.976,112.569z"/>
		<path fill="#55487E" d="M359.073,112.851l-1.791,7.121c-0.145,0.822,0.242,1.25,1.162,1.282c0.979-0.112,1.661-0.893,2.048-2.339    l1.629-6.064h2.452l-2,7.661c-0.345,0.871-0.85,1.6-1.517,2.186c-0.844,0.77-1.983,1.153-3.419,1.153    c-0.85,0-1.592-0.29-2.226-0.871c-0.635-0.602-0.847-1.511-0.638-2.726l1.871-7.403H359.073z"/>
		<path fill="#55487E" d="M368.661,116.529l2.646-3.678l2.71,0.009l-2.807,10.733l-2.387-0.008l1.516-5.96l-3,4.161l-0.612-4.129    l-1.484,5.936l-2.5-0.008l2.822-10.734h2.646L368.661,116.529z"/>
		<path fill="#55487E" d="M379.339,115.247h-2.29l-0.451,1.653h2.548l-1.58,2.419h-1.549l-0.516,1.911h3.064l-1.388,2.363h-4.854    l2.54-9.847c0.146-0.538,0.486-0.847,1.024-0.928h4.903L379.339,115.247z"/>
		<path fill="#55487E" d="M385.04,118.424l1.388-5.573l2.387,0.009l-2.774,10.733h-2.161l-1.29-5.936l-1.419,5.936l-2.468-0.008    l2.79-10.734h2.451L385.04,118.424z"/>
		<path fill="#55487E" d="M397.71,112.86l-1.483,2.451h-1.549l-2.112,8.29h-2.678l2.146-8.322h-0.871l-0.839,1.354h-2.258v-0.064    l2.354-3.709H397.71z"/>
		<path fill="#55487E" d="M402.274,115.819c-0.436-0.521-0.94-0.766-1.516-0.733c-0.57,0.032-0.936,0.296-1.098,0.79    c-0.15,0.489,0.27,0.928,1.259,1.314c0.994,0.29,1.521,0.887,1.58,1.79c0,1.184-0.419,2.291-1.258,3.323    c-0.592,0.655-1.21,1.104-1.854,1.347c-0.641,0.242-1.227,0.33-1.759,0.266c-1.048-0.097-1.865-0.655-2.451-1.677l1.71-2.227    c0.198,0.468,0.448,0.828,0.75,1.081c0.312,0.247,0.637,0.371,0.976,0.371c0.36,0,0.68-0.14,0.96-0.42    c0.284-0.284,0.403-0.591,0.354-0.919c-0.049-0.339-0.239-0.567-0.572-0.686l-0.532-0.21c-0.21-0.086-0.412-0.172-0.605-0.258    c-0.425-0.198-0.729-0.471-0.911-0.814c-0.178-0.36-0.264-0.753-0.258-1.178c0-0.903,0.322-1.806,0.968-2.709    c0.559-0.77,1.376-1.307,2.451-1.613c0.366-0.102,0.834-0.124,1.403-0.064c0.597,0.054,1.193,0.408,1.79,1.064L402.274,115.819z"/>
	</g>
</g>
<ellipse transform="matrix(0.7877 -0.616 0.616 0.7877 -2.1478 60.6155)" cx="86.876" cy="33.424" rx="0.889" ry="1.86"/>
<ellipse transform="matrix(0.7875 -0.6163 0.6163 0.7875 -3.7895 58.9855)" cx="83.643" cy="34.988" rx="0.889" ry="1.86"/>
<path fill="#719248" d="M35.228,62.74c0,0,3.31,14.394,11.776,16.779l1.463,7.818c0,0-8.197,9.356-5.427,21.128  c0,0,2.655,24.702,5.427,32.207h2.887c0,0-14.779-37.178-1.154-52.187l-1.386-10.392c0,0-12.239-7.388-11.661-15.354H35.228z"/>
<path fill="#29ABE2" d="M40.962,40.571c0,0-7.542,9.028-5.734,20.376h2.271c0,0-2.078-7.907,4.389-19.568L40.962,40.571z"/>
<path fill="#719248" d="M53.662,31.861c0,0-8.312,1.945-11.314,7.117l0.943,1.016c0,0,3.559-5.172,10.949-6.569L53.662,31.861z"/>
<path fill="#FCEEB7" d="M56.318,31.861c0,0,1.793,1.08,2.608,4.691l5.935,9.214l-2.737,3.138c0,0,6.257,0.162,7.241,7.191  c0,0-0.641,5.111-1.617,5.719l1.617,0.064c0,0,4.617-9.3-4.965-13.804l2.077-2.655C66.478,45.42,61.744,33.195,56.318,31.861z"/>
</svg>