<?xml version="1.0" encoding="UTF-8"?>
<!-- Generator: Adobe Illustrator 16.0.0, SVG Export Plug-In . SVG Version: 6.00 Build 0)  -->
<!DOCTYPE svg PUBLIC "-//W3C//DTD SVG 1.1//EN" "http://www.w3.org/Graphics/SVG/1.1/DTD/svg11.dtd">
<svg version="1.1" id="Layer_1" xmlns="http://www.w3.org/2000/svg" xmlns:xlink="http://www.w3.org/1999/xlink" x="0px" y="0px" width="422px" height="173.535px" viewBox="0 0 422 173.535" enable-background="new 0 0 422 173.535" xml:space="preserve">
<g>
	<path fill="#55487E" d="M153.488,38.074L90.973,7.968L28.457,38.074L13.018,105.72l43.262,54.249h69.386l43.262-54.249   L153.488,38.074z M123.636,155.521H58.309l-40.731-51.073l14.537-63.69l58.858-28.344l58.857,28.344l14.535,63.69L123.636,155.521z   "/>
	<polygon fill="#55487E" points="60.209,151.359 21.848,103.256 35.539,43.272 90.973,16.578 146.406,43.272 160.096,103.256    121.734,151.359  "/>
	<g>
		<g>
			<path fill="#719A48" d="M124.798,109.401c-4.687-21.007-17.44-18.005-17.44-18.005l-0.182-0.064     c-0.805-3.849-0.756-9.501-0.756-9.501c-0.281-4.503-3.658-5.44-3.658-5.44L86.164,79.58l-4.757-7.729l3.631-7.462l-5.439-9.285     l-0.319-1.378l0.885,0.16l-1.514-2.873l-1.112-4.816l-2.131-1.354l-2.936-5.581h-5.41c0,0-6.724-0.702-14.562,9.29     c-0.014-0.018-0.023-0.036-0.033-0.057c0.01,0.021,0.02,0.039,0.031,0.06c-0.154,0.196-0.312,0.4-0.469,0.609     c-0.082-0.086-0.165-0.175-0.254-0.268c0.085,0.096,0.166,0.189,0.245,0.28c-0.314,0.415-0.63,0.85-0.948,1.301     c-0.062-0.034-0.119-0.063-0.186-0.096c0.062,0.037,0.119,0.07,0.179,0.105c-0.771,1.098-1.548,2.301-2.327,3.623     c0,0-0.758,2.285-1.304,5.74c-0.084-0.027-0.167-0.058-0.259-0.088c0.092,0.039,0.172,0.075,0.256,0.109     c0,0.011-0.002,0.021-0.004,0.03c-0.092-0.03-0.178-0.056-0.277-0.085c0.096,0.031,0.186,0.061,0.277,0.091     c-0.006,0.045-0.014,0.091-0.02,0.138c-0.107-0.026-0.209-0.054-0.32-0.084c0.111,0.03,0.213,0.06,0.317,0.09     c-0.072,0.467-0.138,0.953-0.199,1.459c-0.077,0.005-0.149,0.011-0.23,0.019c0.081,0,0.151,0.001,0.228,0.004     c-0.373,3.11-0.502,6.898,0.147,10.75c-0.095,0.066-0.192,0.13-0.292,0.199c0.103-0.051,0.203-0.102,0.299-0.153     c1.07,6.267,4.207,12.693,11.721,16.646l0.012-0.082c0.422,3.603,1.191,6.442,1.191,6.442     c-15.004,13.503-0.072,56.025-0.072,56.025h50.922h10.604C128.673,138.227,124.798,109.401,124.798,109.401z"/>
			<path fill="#0071BC" d="M46.639,70.125c0,0,17.713-4.179,21.641,3.013c0,0,2.272,6.443,14.055,3.629l0.828-12.743     c0,0,1.025-8.613-10.855-6.937c0,0-11.662-1.702-17.865-10.142C54.441,46.946,46.701,49.416,46.639,70.125z"/>
			<path fill="#FFFFFF" d="M72.16,61.325c0,0,3.064-0.562,3.938,1.562c0.875,2.125-1.688,3.876-1.688,3.876     s-3.252,0.788-3.937-1.919C69.786,62.138,72.16,61.325,72.16,61.325z"/>
			<path d="M73.037,65.64c0,0-2.634-1.688,0.277-3.25c0,0,2.349-0.375,1.721,1.999C75.035,64.389,75.287,65.953,73.037,65.64z"/>
			<path fill="#715948" d="M75.144,110.151l-1.601,5.625l0.102,1.48l0.698,10.147h-1.028c0,0-5.087-17.442-1.369-21.943     L75.144,110.151z"/>
			<path fill="#715948" d="M107.357,91.396c0,0,3.377,22.69-3.189,33.195c0,0-1.312,8.627,3.564,12.19c0,0-4.687-9.564-2.437-11.814     C105.296,124.968,112.609,109.586,107.357,91.396z"/>
			<path fill="#E6E021" d="M106.16,64.822l0.26-0.102l-2.662-1.256c12.147-3.765,27.406-7.205,41.295-6.576     c0,0-8.627-7.127-34.694-9.753c0,0-11.442-12.19-19.879-12.565c0,0-13.692-4.315-22.694,5.814c0,0,3.562,0.375,3.188,4.5     c0,0,4.314,8.251,6.189,9.564l-4.501,2.44c0,0,9.188,1.498,8.251,7.501l-1.123,6.002l0.93,1.397l0,0l0.344,1.341     c0.085,0.429,0.211,0.962,0.404,1.556l0,0l0,0c0.611,1.891,1.882,4.362,4.508,5.833c0,0,25.136-1.687,61.705-11.44L106.16,64.822     z"/>
			<path fill="#FC9C21" d="M138.211,68.326l-36.668-4.262l-20.136,7.787l2.412,1.915c0,0,17.632-5.202,28.509-4.85L138.211,68.326z"/>
		</g>
	</g>
</g>
<g>
	<g>
		<path fill="#55487E" d="M242.598,44.48c3.516,0.33,5.054,2.601,4.614,6.812l-6.153,23.954c-1.538,3.296-4.102,5.274-7.691,5.933    v0.275c3.406,1.208,4.725,3.956,3.956,8.241l-5.274,22.086c-0.989,3.663-3.406,5.714-7.252,6.153h-41.974l16.756-64.719    c1.648-5.823,5.293-8.735,10.934-8.735H242.598z M218.204,101.452l2.856-11.427h-14.284l10.109-16.482h7.911l3.516-12.307h-14.504    l-10.548,40.215H218.204z"/>
		<path fill="#55487E" d="M253.641,93.376c-5.201-0.659-8.021-2.563-8.461-5.714l11.372-43.183h17.911l-9.011,34.447h15.658    l9.064-34.612l18.021,0.055l-11.647,45.051c-1.392,2.527-5.311,3.846-11.757,3.956h-6.812l-6.318,24.943h-16.592l6.318-24.943    H253.641z"/>
		<path fill="#55487E" d="M341.27,44.755c3.149,0.22,5.713,1.026,7.691,2.417c4.028,2.601,6.043,6.557,6.043,11.867v1.318    c-0.549,9.89-3.388,18.058-8.516,24.503c-2.82,3.333-6.117,5.788-9.889,7.362l7.746,25.712H326.93l-6.318-23.734h-2.417    l-6.153,23.514l-0.22,0.22h-16.042l-0.22-0.22h-0.22l18.734-72.96H341.27z M326.216,78.268c4.907-0.33,8.186-2.088,9.834-5.274    c1.794-3.259,2.582-6.318,2.362-9.175c-0.109-2.893-2.637-4.34-7.582-4.34h-4.12l-4.89,18.79H326.216z"/>
		<path fill="#55487E" d="M394.396,44.645c8.68,0,14.833,4.615,18.459,13.845c0.88,3.187,1.319,6.428,1.319,9.724    c-0.22,11.428-3.224,21.61-9.011,30.547c-2.931,4.871-6.739,8.992-11.428,12.361c-6.189,4.542-12.416,6.812-18.679,6.812h-25.932    l18.68-73.29H394.396z M378.134,101.232c1.868,0,4.212-0.97,7.032-2.911c3.662-3.442,6.153-6.758,7.472-9.944    c2.161-5.018,3.333-9.834,3.517-14.449c0-6.373-2.197-10.438-6.593-12.197l-4.176-0.439h-4.614l-10.329,39.941H378.134z"/>
	</g>
	<g>
		<path fill="#55487E" d="M187.664,120.779c0.517,0.049,0.742,0.382,0.678,1l-0.903,3.516c-0.226,0.484-0.603,0.774-1.129,0.871    v0.041c0.5,0.177,0.693,0.58,0.581,1.209l-0.774,3.242c-0.146,0.538-0.5,0.839-1.064,0.903h-6.161l2.459-9.5    c0.242-0.854,0.777-1.282,1.605-1.282H187.664z M184.084,129.143l0.419-1.678h-2.097l1.484-2.42h1.161l0.516-1.806h-2.129    l-1.548,5.903H184.084z"/>
		<path fill="#55487E" d="M193.592,120.819c0.463,0.032,0.839,0.15,1.129,0.355c0.592,0.382,0.888,0.962,0.888,1.741v0.194    c-0.081,1.451-0.497,2.65-1.25,3.597c-0.414,0.489-0.898,0.85-1.452,1.08l1.138,3.774h-2.557l-0.928-3.483h-0.354l-0.903,3.451    l-0.032,0.032h-2.354l-0.032-0.032h-0.032l2.75-10.71H193.592z M191.383,125.739c0.72-0.049,1.201-0.307,1.443-0.774    c0.263-0.479,0.379-0.928,0.347-1.347c-0.017-0.425-0.387-0.638-1.113-0.638h-0.604l-0.718,2.759H191.383z"/>
		<path fill="#55487E" d="M197.35,131.562h-2.581l2.774-10.742h2.621L197.35,131.562z"/>
		<path fill="#55487E" d="M204.833,126.393l1.388-5.573l2.387,0.009l-2.774,10.733h-2.161l-1.29-5.936l-1.419,5.936l-2.468-0.008    l2.79-10.734h2.451L204.833,126.393z"/>
		<path fill="#55487E" d="M214.285,120.537c1.769,0,2.914,0.624,3.436,1.871l-2.548,1.742c-0.259-0.646-0.702-0.968-1.331-0.968    c-1.538,0-2.647,1.011-3.331,3.032c-0.14,0.511-0.209,0.93-0.209,1.258c0,1.355,0.591,2.032,1.774,2.032    c0.978-0.005,1.701-0.328,2.169-0.968l0.218-0.814h-1.839l1.524-2.347h3.653l-1.113,4.307c-0.446,0.612-0.946,1.086-1.5,1.419    c-1.005,0.607-2.293,0.882-3.862,0.823c-1.802-0.108-2.981-0.925-3.541-2.452c-0.112-0.403-0.169-0.779-0.169-1.129    c0-2.15,0.807-4.107,2.419-5.871c0.952-0.86,1.756-1.387,2.411-1.58C213.237,120.655,213.85,120.537,214.285,120.537z"/>
		<path fill="#55487E" d="M224.27,127.957c-0.764-0.097-1.178-0.377-1.242-0.839l1.669-6.339h2.629l-1.322,5.057h2.299l1.33-5.081    l2.646,0.008l-1.71,6.613c-0.204,0.371-0.779,0.564-1.726,0.581h-1l-0.928,3.661h-2.436l0.928-3.661H224.27z"/>
		<path fill="#55487E" d="M237.6,120.513c1.727,0,2.888,0.817,3.484,2.452c0.129,0.483,0.193,0.925,0.193,1.322    c0,2.693-1.097,4.92-3.29,6.678c-1.124,0.666-2.188,1-3.194,1c-1.666,0-2.806-0.774-3.419-2.322    c-0.172-0.607-0.258-1.167-0.258-1.678c0-1.71,0.623-3.397,1.871-5.064C234.336,121.309,235.874,120.513,237.6,120.513z     M233.793,127.223c0,1.07,0.366,1.726,1.098,1.968l0.612,0.097c1.103,0,2.017-0.698,2.742-2.097    c0.301-0.822,0.451-1.479,0.451-1.968c0-1.005-0.365-1.661-1.097-1.968l-0.677-0.097c-0.903,0-1.71,0.549-2.42,1.646    c-0.382,0.698-0.597,1.301-0.645,1.807L233.793,127.223z"/>
		<path fill="#55487E" d="M245.584,120.819l-1.791,7.121c-0.145,0.822,0.242,1.25,1.162,1.282c0.979-0.112,1.661-0.893,2.048-2.339    l1.629-6.064h2.452l-2,7.661c-0.345,0.871-0.85,1.6-1.517,2.186c-0.844,0.77-1.983,1.153-3.419,1.153    c-0.85,0-1.592-0.29-2.226-0.871c-0.635-0.602-0.847-1.511-0.638-2.726l1.871-7.403H245.584z"/>
		<path fill="#55487E" d="M256.011,120.819c0.463,0.032,0.839,0.15,1.129,0.355c0.592,0.382,0.888,0.962,0.888,1.741v0.194    c-0.081,1.451-0.497,2.65-1.25,3.597c-0.414,0.489-0.898,0.85-1.452,1.08l1.138,3.774h-2.557l-0.928-3.483h-0.354l-0.903,3.451    l-0.032,0.032h-2.354l-0.032-0.032h-0.032l2.75-10.71H256.011z M253.802,125.739c0.72-0.049,1.201-0.307,1.443-0.774    c0.263-0.479,0.379-0.928,0.347-1.347c-0.017-0.425-0.387-0.638-1.113-0.638h-0.604l-0.718,2.759H253.802z"/>
		<path fill="#55487E" d="M270.261,120.828c0.521,0.08,0.814,0.414,0.879,1l-0.976,3.75c-0.242,0.677-0.693,1.08-1.354,1.209    c0.645,0.27,0.911,0.791,0.798,1.564l-1.113,4.363l-2.298-1.032l1.04-4.064h-2.097l1.484-2.21h1.097l0.58-2.129h-2.048    l-2.193,8.322h-2.436l2.806-10.773H270.261z"/>
		<path fill="#55487E" d="M276.607,123.215h-2.29l-0.451,1.653h2.548l-1.58,2.419h-1.549l-0.516,1.911h3.064l-1.388,2.363h-4.854    l2.54-9.847c0.146-0.538,0.486-0.847,1.024-0.928h4.903L276.607,123.215z"/>
		<path fill="#55487E" d="M282.922,123.787c-0.436-0.521-0.94-0.766-1.516-0.733c-0.57,0.032-0.936,0.296-1.098,0.79    c-0.15,0.489,0.27,0.928,1.259,1.314c0.994,0.29,1.521,0.887,1.58,1.79c0,1.184-0.419,2.291-1.258,3.323    c-0.592,0.655-1.21,1.104-1.854,1.347c-0.641,0.242-1.227,0.33-1.759,0.266c-1.048-0.097-1.865-0.655-2.451-1.677l1.71-2.227    c0.198,0.468,0.448,0.828,0.75,1.081c0.312,0.247,0.637,0.371,0.976,0.371c0.36,0,0.68-0.14,0.96-0.42    c0.284-0.284,0.403-0.591,0.354-0.919c-0.049-0.339-0.239-0.567-0.572-0.686l-0.532-0.21c-0.21-0.086-0.412-0.172-0.605-0.258    c-0.425-0.198-0.729-0.471-0.911-0.814c-0.178-0.36-0.264-0.753-0.258-1.178c0-0.903,0.322-1.806,0.968-2.709    c0.559-0.77,1.376-1.307,2.451-1.613c0.366-0.102,0.834-0.124,1.403-0.064c0.597,0.054,1.193,0.408,1.79,1.064L282.922,123.787z"/>
		<path fill="#55487E" d="M293.43,120.828l-1.483,2.451h-1.549l-2.112,8.29h-2.678l2.146-8.322h-0.871l-0.839,1.354h-2.258v-0.064    l2.354-3.709H293.43z"/>
		<path fill="#55487E" d="M297.721,120.819c0.463,0.032,0.839,0.15,1.129,0.355c0.592,0.382,0.888,0.962,0.888,1.741v0.194    c-0.081,1.451-0.497,2.65-1.25,3.597c-0.414,0.489-0.898,0.85-1.452,1.08l1.138,3.774h-2.557l-0.928-3.483h-0.354l-0.903,3.451    l-0.032,0.032h-2.354l-0.032-0.032h-0.032l2.75-10.71H297.721z M295.512,125.739c0.72-0.049,1.201-0.307,1.443-0.774    c0.263-0.479,0.379-0.928,0.347-1.347c-0.017-0.425-0.387-0.638-1.113-0.638h-0.604l-0.718,2.759H295.512z"/>
		<path fill="#55487E" d="M301.479,131.562h-2.581l2.774-10.742h2.621L301.479,131.562z"/>
		<path fill="#55487E" d="M309.954,120.537c1.769,0,2.914,0.624,3.436,1.871l-2.548,1.742c-0.259-0.646-0.702-0.968-1.331-0.968    c-1.495,0.032-2.604,1.043-3.331,3.032c-0.14,0.511-0.209,0.93-0.209,1.258c-0.017,1.199,0.521,1.822,1.612,1.871    c0.979,0.038,1.828-0.419,2.549-1.371l1.5,1.839c-0.393,0.521-0.981,0.997-1.767,1.428c-0.784,0.43-1.741,0.658-2.87,0.686    c-1.78,0-2.96-0.791-3.541-2.371c-0.112-0.452-0.169-0.855-0.169-1.21c0-2.15,0.807-4.107,2.419-5.871    c0.952-0.86,1.756-1.387,2.411-1.58C308.906,120.655,309.519,120.537,309.954,120.537z"/>
		<path fill="#55487E" d="M322.471,120.828l-1.483,2.451h-1.549l-2.112,8.29h-2.678l2.146-8.322h-0.871l-0.839,1.354h-2.258v-0.064    l2.354-3.709H322.471z"/>
		<path fill="#55487E" d="M327.043,123.215h-2.29l-0.451,1.653h2.548l-1.58,2.419h-1.549l-0.516,1.911h3.064l-1.388,2.363h-4.854    l2.54-9.847c0.146-0.538,0.486-0.847,1.024-0.928h4.903L327.043,123.215z"/>
		<path fill="#55487E" d="M333.115,120.804c1.274,0,2.178,0.677,2.71,2.032c0.129,0.468,0.193,0.943,0.193,1.427    c-0.032,1.678-0.473,3.173-1.322,4.484c-0.431,0.715-0.989,1.32-1.678,1.814c-0.908,0.667-1.822,1-2.741,1h-3.807l2.741-10.758    H333.115z M330.729,129.11c0.274,0,0.618-0.143,1.032-0.428c0.537-0.506,0.903-0.992,1.097-1.46    c0.317-0.736,0.489-1.443,0.517-2.121c0-0.936-0.323-1.532-0.968-1.79l-0.613-0.064h-0.678l-1.516,5.863H330.729z"/>
		<path fill="#55487E" d="M348.236,120.787c0.774,0.253,1.086,0.777,0.936,1.573l-2.21,8.395c-0.209,0.506-0.653,0.774-1.33,0.807    h-5.903l2.758-10.774H348.236z M344.882,129.11l1.564-5.903h-2.161l-1.517,5.903H344.882z"/>
		<path fill="#55487E" d="M354.809,120.513c1.727,0,2.888,0.817,3.484,2.452c0.129,0.483,0.193,0.925,0.193,1.322    c0,2.693-1.097,4.92-3.29,6.678c-1.124,0.666-2.188,1-3.194,1c-1.666,0-2.806-0.774-3.419-2.322    c-0.172-0.607-0.258-1.167-0.258-1.678c0-1.71,0.623-3.397,1.871-5.064C351.545,121.309,353.083,120.513,354.809,120.513z     M351.002,127.223c0,1.07,0.366,1.726,1.098,1.968l0.612,0.097c1.103,0,2.017-0.698,2.742-2.097    c0.301-0.822,0.451-1.479,0.451-1.968c0-1.005-0.365-1.661-1.097-1.968l-0.677-0.097c-0.903,0-1.71,0.549-2.42,1.646    c-0.382,0.698-0.597,1.301-0.645,1.807L351.002,127.223z"/>
		<path fill="#55487E" d="M364.994,120.537c1.769,0,2.914,0.624,3.436,1.871l-2.548,1.742c-0.259-0.646-0.702-0.968-1.331-0.968    c-1.495,0.032-2.604,1.043-3.331,3.032c-0.14,0.511-0.209,0.93-0.209,1.258c-0.017,1.199,0.521,1.822,1.612,1.871    c0.979,0.038,1.828-0.419,2.549-1.371l1.5,1.839c-0.393,0.521-0.981,0.997-1.767,1.428c-0.784,0.43-1.741,0.658-2.87,0.686    c-1.78,0-2.96-0.791-3.541-2.371c-0.112-0.452-0.169-0.855-0.169-1.21c0-2.15,0.807-4.107,2.419-5.871    c0.952-0.86,1.756-1.387,2.411-1.58C363.946,120.655,364.559,120.537,364.994,120.537z"/>
		<path fill="#55487E" d="M372.092,120.819l-1.791,7.121c-0.145,0.822,0.242,1.25,1.162,1.282c0.979-0.112,1.661-0.893,2.048-2.339    l1.629-6.064h2.452l-2,7.661c-0.345,0.871-0.85,1.6-1.517,2.186c-0.844,0.77-1.983,1.153-3.419,1.153    c-0.85,0-1.592-0.29-2.226-0.871c-0.635-0.602-0.847-1.511-0.638-2.726l1.871-7.403H372.092z"/>
		<path fill="#55487E" d="M381.68,124.497l2.646-3.678l2.71,0.009l-2.807,10.733l-2.387-0.008l1.516-5.96l-3,4.161l-0.612-4.129    l-1.484,5.936l-2.5-0.008l2.822-10.734h2.646L381.68,124.497z"/>
		<path fill="#55487E" d="M392.357,123.215h-2.29l-0.451,1.653h2.548l-1.58,2.419h-1.549l-0.516,1.911h3.064l-1.388,2.363h-4.854    l2.54-9.847c0.146-0.538,0.486-0.847,1.024-0.928h4.903L392.357,123.215z"/>
		<path fill="#55487E" d="M398.059,126.393l1.388-5.573l2.387,0.009l-2.774,10.733h-2.161l-1.29-5.936l-1.419,5.936l-2.468-0.008    l2.79-10.734h2.451L398.059,126.393z"/>
		<path fill="#55487E" d="M410.729,120.828l-1.483,2.451h-1.549l-2.112,8.29h-2.678l2.146-8.322h-0.871l-0.839,1.354h-2.258v-0.064    l2.354-3.709H410.729z"/>
		<path fill="#55487E" d="M415.293,123.787c-0.436-0.521-0.94-0.766-1.516-0.733c-0.57,0.032-0.936,0.296-1.098,0.79    c-0.15,0.489,0.27,0.928,1.259,1.314c0.994,0.29,1.521,0.887,1.58,1.79c0,1.184-0.419,2.291-1.258,3.323    c-0.592,0.655-1.21,1.104-1.854,1.347c-0.641,0.242-1.227,0.33-1.759,0.266c-1.048-0.097-1.865-0.655-2.451-1.677l1.71-2.227    c0.198,0.468,0.448,0.828,0.75,1.081c0.312,0.247,0.637,0.371,0.976,0.371c0.36,0,0.68-0.14,0.96-0.42    c0.284-0.284,0.403-0.591,0.354-0.919c-0.049-0.339-0.239-0.567-0.572-0.686l-0.532-0.21c-0.21-0.086-0.412-0.172-0.605-0.258    c-0.425-0.198-0.729-0.471-0.911-0.814c-0.178-0.36-0.264-0.753-0.258-1.178c0-0.903,0.322-1.806,0.968-2.709    c0.559-0.77,1.376-1.307,2.451-1.613c0.366-0.102,0.834-0.124,1.403-0.064c0.597,0.054,1.193,0.408,1.79,1.064L415.293,123.787z"/>
	</g>
</g>
<ellipse transform="matrix(0.7877 -0.616 0.616 0.7877 -4.2931 70.3266)" cx="99.894" cy="41.392" rx="0.889" ry="1.86"/>
<ellipse transform="matrix(0.7875 -0.6163 0.6163 0.7875 -5.9342 68.7017)" cx="96.661" cy="42.956" rx="0.889" ry="1.86"/>
<path fill="#719248" d="M48.245,70.708c0,0,3.31,14.394,11.776,16.779l1.463,7.818c0,0-8.197,9.356-5.427,21.128  c0,0,2.655,24.702,5.427,32.207h2.887c0,0-14.779-37.178-1.154-52.187l-1.386-10.392c0,0-12.239-7.388-11.661-15.354H48.245z"/>
<path fill="#29ABE2" d="M53.979,48.539c0,0-7.542,9.028-5.734,20.376h2.271c0,0-2.078-7.907,4.389-19.568L53.979,48.539z"/>
<path fill="#719248" d="M66.68,39.829c0,0-8.312,1.945-11.314,7.117l0.943,1.016c0,0,3.559-5.172,10.949-6.569L66.68,39.829z"/>
<path fill="#FCEEB7" d="M69.336,39.829c0,0,1.793,1.08,2.608,4.691l5.935,9.214l-2.737,3.138c0,0,6.257,0.162,7.241,7.191  c0,0-0.641,5.111-1.617,5.719l1.617,0.064c0,0,4.617-9.3-4.965-13.804l2.077-2.655C79.495,53.389,74.762,41.163,69.336,39.829z"/>
</svg>