<?xml version="1.0" encoding="UTF-8" standalone="no"?>
<!-- The icon can be used freely in both personal and commercial projects with no attribution required, but always appreciated. 
You may NOT sub-license, resell, rent, redistribute or otherwise transfer the icon without express written permission from iconmonstr.com -->

<svg
   xmlns:dc="http://purl.org/dc/elements/1.1/"
   xmlns:cc="http://creativecommons.org/ns#"
   xmlns:rdf="http://www.w3.org/1999/02/22-rdf-syntax-ns#"
   xmlns:svg="http://www.w3.org/2000/svg"
   xmlns="http://www.w3.org/2000/svg"
   xmlns:sodipodi="http://sodipodi.sourceforge.net/DTD/sodipodi-0.dtd"
   xmlns:inkscape="http://www.inkscape.org/namespaces/inkscape"
   version="1.1"
   x="0px"
   y="0px"
   width="512px"
   height="512px"
   viewBox="0 0 512 512"
   enable-background="new 0 0 512 512"
   xml:space="preserve"
   id="svg2"
   inkscape:version="0.91 r13725"
   sodipodi:docname="search.svg"><metadata
     id="metadata9"><rdf:RDF><cc:Work
         rdf:about=""><dc:format>image/svg+xml</dc:format><dc:type
           rdf:resource="http://purl.org/dc/dcmitype/StillImage" /></cc:Work></rdf:RDF></metadata><defs
     id="defs7" /><sodipodi:namedview
     pagecolor="#ffffff"
     bordercolor="#666666"
     borderopacity="1"
     objecttolerance="10"
     gridtolerance="10"
     guidetolerance="10"
     inkscape:pageopacity="0"
     inkscape:pageshadow="2"
     inkscape:window-width="958"
     inkscape:window-height="1041"
     id="namedview5"
     showgrid="false"
     inkscape:zoom="0.4609375"
     inkscape:cx="-142.10169"
     inkscape:cy="256"
     inkscape:window-x="960"
     inkscape:window-y="39"
     inkscape:window-maximized="0"
     inkscape:current-layer="svg2" /><path
     id="magnifier-4-icon"
     d="M448.225,394.243l-85.387-85.385c16.55-26.081,26.146-56.986,26.146-90.094   c0-92.989-75.652-168.641-168.643-168.641c-92.989,0-168.641,75.652-168.641,168.641s75.651,168.641,168.641,168.641   c31.465,0,60.939-8.67,86.175-23.735l86.14,86.142C429.411,486.566,485.011,431.029,448.225,394.243z M103.992,218.764   c0-64.156,52.192-116.352,116.35-116.352s116.353,52.195,116.353,116.352s-52.195,116.352-116.353,116.352   S103.992,282.92,103.992,218.764z M138.455,188.504c34.057-78.9,148.668-69.752,170.248,12.862   C265.221,150.329,188.719,144.834,138.455,188.504z"
     style="fill:#ffffff" /></svg>